<svg viewBox="0 0 72 72" fill="none" xmlns="http://www.w3.org/2000/svg">
  <defs>
    <linearGradient id="rg1" x1="0" y1="0" x2="72" y2="72"><stop offset="0%" stop-color="#D4AF37"/><stop offset="100%" stop-color="#B8961F"/></linearGradient>
    <linearGradient id="rg2" x1="0" y1="0" x2="72" y2="72"><stop offset="0%" stop-color="#0D2818"/><stop offset="100%" stop-color="#071f15"/></linearGradient>
  </defs>
  <circle cx="36" cy="36" r="34" fill="url(#rg2)"/>
  <circle cx="36" cy="36" r="34" stroke="url(#rg1)" stroke-width="1.5"/>
  <circle cx="36" cy="36" r="28" stroke="rgba(200,162,39,0.15)" stroke-width="1" fill="none"/>
  <!-- Chef hat body -->
  <path d="M22 38V26c0-6 5-10 14-10s14 4 14 10v12" stroke="#D4AF37" stroke-width="2.8" stroke-linecap="round" stroke-linejoin="round" fill="none"/>
  <!-- Hat base band -->
  <path d="M22 40h28v-2H22z" fill="rgba(212,175,55,0.35)"/>
  <!-- Hat puff top -->
  <path d="M24 26c0-5 4-8 12-8s12 3 12 8" stroke="#f1d27a" stroke-width="2.4" stroke-linecap="round" fill="none"/>
  <!-- Crossed fork right -->
  <path d="M45 20l4-6m-2 4l3-5m-4 3l4-5" stroke="#D4AF37" stroke-width="1.5" stroke-linecap="round"/>
  <path d="M46 22l2-10" stroke="#D4AF37" stroke-width="2" stroke-linecap="round"/>
  <!-- Crossed knife left -->
  <path d="M27 20l-4-6" stroke="#D4AF37" stroke-width="2" stroke-linecap="round"/>
  <path d="M26 22l-1-10" stroke="#D4AF37" stroke-width="2" stroke-linecap="round"/>
  <!-- Gold sparkle -->
  <circle cx="22" cy="24" r="1.5" fill="#f1d27a" opacity="0.6"/>
  <circle cx="50" cy="24" r="1.5" fill="#f1d27a" opacity="0.6"/>
</svg>
